<?xml version="1.0" encoding="UTF-8" standalone="no"?>
<!-- Created with Inkscape (http://www.inkscape.org/) -->

<svg
   xmlns:dc="http://purl.org/dc/elements/1.1/"
   xmlns:cc="http://creativecommons.org/ns#"
   xmlns:rdf="http://www.w3.org/1999/02/22-rdf-syntax-ns#"
   xmlns:svg="http://www.w3.org/2000/svg"
   xmlns="http://www.w3.org/2000/svg"
   xmlns:sodipodi="http://sodipodi.sourceforge.net/DTD/sodipodi-0.dtd"
   xmlns:inkscape="http://www.inkscape.org/namespaces/inkscape"
   width="744.09448819"
   height="1052.3622047"
   id="svg20991"
   version="1.1"
   inkscape:version="0.48.2 r9819"
   inkscape:export-filename="/Users/shorn/dev/discoverer/gfx/icons.iconset/icon_128x128.png"
   inkscape:export-xdpi="576.00702"
   inkscape:export-ydpi="576.00702"
   sodipodi:docname="New document 6">
  <defs
     id="defs20993" />
  <sodipodi:namedview
     id="base"
     pagecolor="#ffffff"
     bordercolor="#666666"
     borderopacity="1.0"
     inkscape:pageopacity="0.0"
     inkscape:pageshadow="2"
     inkscape:zoom="26.550332"
     inkscape:cx="328.57142"
     inkscape:cy="798.64943"
     inkscape:document-units="px"
     inkscape:current-layer="layer1"
     showgrid="false"
     inkscape:window-width="854"
     inkscape:window-height="870"
     inkscape:window-x="334"
     inkscape:window-y="175"
     inkscape:window-maximized="0" />
  <metadata
     id="metadata20996">
    <rdf:RDF>
      <cc:Work
         rdf:about="">
        <dc:format>image/svg+xml</dc:format>
        <dc:type
           rdf:resource="http://purl.org/dc/dcmitype/StillImage" />
        <dc:title></dc:title>
      </cc:Work>
    </rdf:RDF>
  </metadata>
  <g
     inkscape:label="Layer 1"
     inkscape:groupmode="layer"
     id="layer1">
    <g
       id="g3858"
       transform="matrix(1.25,0,0,-1.25,334.15255,252.29195)">
      <path
         d="m 0,0 c -0.586,-0.586 -1.535,-0.586 -2.121,0 -0.586,0.586 -0.586,1.535 0,2.121 0.586,0.586 1.535,0.586 2.121,0 C 0.586,1.535 0.586,0.586 0,0 m -2.828,-2.828 c -0.586,-0.586 -1.535,-0.586 -2.121,0 -0.586,0.586 -0.588,1.535 0,2.121 0.586,0.586 1.535,0.586 2.121,0 0.586,-0.586 0.586,-1.535 0,-2.121 M 0.129,4.521 C -0.914,4.174 -2.404,3.252 -3.182,2.475 l -4.242,-4.243 c -0.389,-0.388 -0.389,-1.025 0,-1.414 l 2.121,-2.121 c 0.389,-0.388 1.026,-0.388 1.414,0 l 4.243,4.242 C 1.131,-0.283 2.053,1.207 2.4,2.252 L 3.535,5.658 0.129,4.521 z"
         style="fill:#1d1d1b;fill-opacity:1;fill-rule:nonzero;stroke:none"
         id="path3860"
         inkscape:connector-curvature="0" />
    </g>
    <g
       id="g3862"
       transform="matrix(1.25,0,0,-1.25,321.33518,256.26895)">
      <path
         d="m 0,0 3.537,3.535 c -0.779,0.778 -2.051,0.778 -2.828,0 L -1.414,1.414 C -1.803,1.025 -1.803,0.389 -1.414,0 -1.025,-0.389 -0.389,-0.389 0,0"
         style="fill:#1d1d1b;fill-opacity:1;fill-rule:nonzero;stroke:none"
         id="path3864"
         inkscape:connector-curvature="0" />
    </g>
    <g
       id="g3866"
       transform="matrix(1.25,0,0,-1.25,327.52418,262.45557)">
      <path
         d="m 0,0 c -0.389,-0.389 -0.389,-1.025 0,-1.414 0.389,-0.389 1.025,-0.389 1.414,0 l 2.121,2.121 c 0.778,0.777 0.778,2.051 0,2.828 L 0,0 z"
         style="fill:#1d1d1b;fill-opacity:1;fill-rule:nonzero;stroke:none"
         id="path3868"
         inkscape:connector-curvature="0" />
    </g>
    <g
       id="g3870"
       transform="matrix(1.25,0,0,-1.25,323.54468,257.5947)">
      <path
         d="m 0,0 c -0.193,-0.195 -0.193,-0.514 0,-0.707 l 1.416,-1.414 c 0.193,-0.195 0.512,-0.195 0.707,0 L 2.477,-1.768 0.354,0.354 0,0 z"
         style="fill:#1d1d1b;fill-opacity:1;fill-rule:nonzero;stroke:none"
         id="path3872"
         inkscape:connector-curvature="0" />
    </g>
    <g
       id="g3874"
       transform="matrix(1.25,0,0,-1.25,318.57155,265.2192)">
      <path
         d="M 0,0 C 2,1 5,3 4,4 3,5 1,2 0,0"
         style="fill:#1d1d1b;fill-opacity:1;fill-rule:nonzero;stroke:none"
         id="path3876"
         inkscape:connector-curvature="0" />
    </g>
  </g>
</svg>
